<?xml version="1.0" encoding="UTF-8" standalone="no"?>
<!-- Created with Inkscape (http://www.inkscape.org/) -->

<svg
   xmlns:dc="http://purl.org/dc/elements/1.1/"
   xmlns:cc="http://creativecommons.org/ns#"
   xmlns:rdf="http://www.w3.org/1999/02/22-rdf-syntax-ns#"
   xmlns:svg="http://www.w3.org/2000/svg"
   xmlns="http://www.w3.org/2000/svg"
   xmlns:sodipodi="http://sodipodi.sourceforge.net/DTD/sodipodi-0.dtd"
   xmlns:inkscape="http://www.inkscape.org/namespaces/inkscape"
   width="210mm"
   height="297mm"
   viewBox="0 0 744.09448819 1052.3622047"
   id="svg2"
   version="1.1"
   inkscape:version="0.91 r13725"
   sodipodi:docname="template_chars.svg"
   inkscape:export-filename="C:\Users\Alessandro\Dropbox\share_db\atsb\images\path4173.png"
   inkscape:export-xdpi="90"
   inkscape:export-ydpi="90">
  <defs
     id="defs4" />
  <sodipodi:namedview
     id="base"
     pagecolor="#ffffff"
     bordercolor="#666666"
     borderopacity="1.0"
     inkscape:pageopacity="0.0"
     inkscape:pageshadow="2"
     inkscape:zoom="0.7"
     inkscape:cx="246.49619"
     inkscape:cy="558.71004"
     inkscape:document-units="px"
     inkscape:current-layer="layer1"
     showgrid="false"
     inkscape:window-width="1920"
     inkscape:window-height="1016"
     inkscape:window-x="-8"
     inkscape:window-y="-8"
     inkscape:window-maximized="1" />
  <metadata
     id="metadata7">
    <rdf:RDF>
      <cc:Work
         rdf:about="">
        <dc:format>image/svg+xml</dc:format>
        <dc:type
           rdf:resource="http://purl.org/dc/dcmitype/StillImage" />
        <dc:title></dc:title>
      </cc:Work>
    </rdf:RDF>
  </metadata>
  <g
     inkscape:label="Livello 1"
     inkscape:groupmode="layer"
     id="layer1">
    <path
       style="fill:#000000"
       d="m 54.764246,933.9581 c -1.579248,-1.88108 4.266064,-3.35411 12.989504,-3.27337 15.20733,0.14062 15.860857,-0.79785 15.860857,-22.77441 0,-12.60668 2.667968,-22.92123 5.928704,-22.92123 3.260798,0 5.928643,10.31455 5.928643,22.92123 0,21.97656 0.653649,22.91503 15.860916,22.77441 8.72344,-0.0802 14.56875,1.39229 12.98957,3.27337 -4.18847,4.98902 -22.48213,4.18017 -29.959886,-1.32468 -4.641235,-3.4168 -7.560232,-3.4168 -10.428658,0 -4.592187,5.46989 -24.914752,6.3928 -29.16965,1.32468 z m 195.515844,-0.15443 c -1.65062,-1.96617 4.72011,-2.74054 14.15716,-1.72085 17.07313,1.84457 17.1673,1.72877 18.95506,-23.35833 1.19145,-16.71921 4.57114,-25.88666 10.03281,-27.21444 5.75057,-1.3979 6.69735,-0.18521 3.13714,4.01971 -2.80444,3.31199 -5.42122,12.55259 -5.81499,20.53455 -0.59601,12.0736 1.12038,14.15927 10.2105,12.40937 6.00966,-1.15702 9.4315,-0.32265 7.60423,1.85388 -1.82735,2.17638 -6.8814,3.95731 -11.23129,3.95731 -4.34982,0 -9.44443,2.94597 -11.32124,6.54666 -3.58266,6.873 -30.56986,9.1177 -35.72938,2.97195 z m 183.91826,0.15443 c -1.57919,-1.88108 4.26612,-3.35411 12.98962,-3.27337 15.20727,0.14062 15.86086,-0.79785 15.86086,-22.77441 0,-12.60668 2.66784,-22.92123 5.92864,-22.92123 3.26074,0 5.92865,10.31455 5.92865,22.92123 0,21.97656 0.65359,22.91503 15.86086,22.77441 8.72356,-0.0802 14.56887,1.39229 12.98962,3.27337 -4.18847,4.98902 -22.48207,4.18017 -29.95994,-1.32468 -4.64117,-3.4168 -7.56012,-3.4168 -10.42854,0 -4.59224,5.46989 -24.91487,6.3928 -29.16977,1.32468 z m 217.74727,-3.12667 c -1.87696,-3.60068 -6.97156,-6.54665 -11.32139,-6.54665 -4.34988,0 -9.40392,-1.78093 -11.23121,-3.95747 -1.82735,-2.17665 1.59455,-3.01088 7.60421,-1.85396 9.09006,1.74992 10.80621,-0.33582 10.21051,-12.40928 -0.39408,-7.98203 -3.01062,-17.22262 -5.81499,-20.53459 -3.56014,-4.20452 -2.61343,-5.41758 3.13708,-4.0196 5.46166,1.32764 8.84136,10.49509 10.03287,27.21431 1.78775,25.08702 1.88189,25.20301 18.95499,23.35834 9.43711,-1.0196 15.80779,-0.24512 14.15722,1.72085 -5.15963,6.14576 -32.14678,3.90105 -35.72929,-2.97195 z M 51.836284,894.29028 c -0.731428,-24.53167 -1.907878,-27.15336 -9.97352,-22.22559 -6.672148,4.07648 -10.914234,4.28381 -15.691506,0.76691 -8.493096,-6.25223 13.108824,-46.56253 25.276554,-47.16745 4.648738,-0.23142 5.427874,0.36001 1.73157,1.3132 -8.62632,2.22516 -28.453842,40.13461 -23.065868,44.10107 3.930006,2.89304 17.957294,-8.37135 22.832414,-18.33507 6.346876,-12.97206 8.329658,3.07718 4.255146,34.44345 l -4.53558,34.91566 -0.82921,-27.81218 z m 69.527136,-7.10348 c -3.41007,-31.73431 -1.30894,-46.88275 4.77734,-34.44345 4.87506,9.96372 18.90234,21.22811 22.83234,18.33507 5.38798,-3.96646 -14.43954,-41.87591 -23.06586,-44.10107 -3.69636,-0.95335 -2.91717,-1.5444 1.73157,-1.3132 12.16773,0.60492 33.76965,40.91522 25.27656,47.16745 -4.77728,3.5169 -8.93945,3.35838 -15.39608,-0.58641 -7.66302,-4.68174 -9.08714,-1.70313 -10.62649,22.22547 l -1.77757,27.6318 -3.75181,-34.91566 z m 125.2893,6.9553 c 0,-23.11553 -1.15557,-25.55572 -11.18814,-23.62434 -6.15356,1.18466 -12.9033,0.11094 -14.99948,-2.38577 -4.98615,-5.93922 15.08819,-36.73847 24.85367,-38.13203 4.15749,-0.5933 4.75812,-0.0643 1.33481,1.17611 -5.14072,1.86219 -23.71548,29.05727 -23.71548,34.72145 0,4.72006 14.54776,0.64714 21.39035,-5.98858 6.76768,-6.56313 7.9024,-2.87844 8.06437,26.18675 0.10366,18.60351 -1.14534,33.82457 -2.77571,33.82457 -1.63036,0 -2.96439,-11.60013 -2.96439,-25.77816 z m 184.61772,0.1479 c -0.73142,-24.53162 -1.90792,-27.15332 -9.9735,-22.2256 -6.67215,4.07649 -10.91425,4.28381 -15.69152,0.76697 -8.49303,-6.25225 13.10889,-46.56246 25.27661,-47.1675 4.64868,-0.2314 5.42788,0.36001 1.73158,1.31326 -8.62638,2.22512 -28.4539,40.1346 -23.06587,44.101 3.92989,2.8931 17.95729,-8.3713 22.83229,-18.33505 6.34701,-12.97208 8.32973,3.07717 4.25527,34.4435 l -4.53558,34.91559 -0.82928,-27.81217 z m 69.52709,-7.10326 c -3.41002,-31.73432 -1.30895,-46.88282 4.77739,-34.4435 4.87506,9.96377 18.9024,21.22814 22.83235,18.33511 5.38802,-3.96646 -14.43948,-41.87589 -23.06587,-44.10108 -3.69636,-0.95334 -2.91717,-1.54437 1.73151,-1.31325 12.16779,0.605 33.76965,40.91528 25.27668,47.16752 -4.77727,3.51683 -8.93956,3.35832 -15.39619,-0.58642 -7.66291,-4.68179 -9.08707,-1.70313 -10.62644,22.22544 l -1.7775,27.6319 -3.75193,-34.91572 z m 185.90689,0 c -0.81585,-29.86569 0.18544,-33.81097 6.92214,-27.27785 6.84247,6.63572 21.39029,10.70864 21.39029,5.98856 0,-5.66417 -18.57476,-32.85925 -23.71548,-34.72149 -3.42332,-1.24016 -2.82268,-1.76937 1.33481,-1.17607 9.76548,1.39357 29.83983,32.19281 24.85369,38.13203 -2.09619,2.49676 -8.72589,3.59358 -14.7328,2.43712 -9.58255,-1.84471 -11.17753,1.1853 -13.01018,24.71542 -1.91861,24.63379 -2.16634,23.97417 -3.04247,-8.09772 z m -379.76236,-6.5468 c -0.0548,-24.01935 0.84642,-26.52876 5.88808,-16.36668 5.44439,10.97369 22.7525,17.18932 22.7525,8.17077 0,-7.37412 -19.18097,-37.66054 -25.86312,-40.83743 -4.79526,-2.27982 -4.54186,-3.22585 0.87699,-3.27335 9.19065,-0.0806 32.62992,38.35669 28.37172,46.52575 -1.65739,3.17954 -7.02273,5.78094 -11.92298,5.78094 -4.95815,0 -11.37695,6.29089 -14.47303,14.18453 -4.87952,12.44067 -5.57166,10.69678 -5.63016,-14.18453 z m 317.06982,13.09337 c -2.12394,-7.81802 -7.27481,-13.09337 -12.78441,-13.09337 -5.07503,0 -10.58336,-2.6014 -12.2407,-5.78094 -4.25825,-8.16906 19.18102,-46.60633 28.37168,-46.52575 5.41884,0.0495 5.67236,0.99353 0.87697,3.27335 -6.68214,3.17689 -25.86309,33.46331 -25.86309,40.83743 0,9.01855 17.30815,2.80292 22.7525,-8.17077 5.13797,-10.35619 6.01885,-8.26113 6.42269,15.27557 0.51122,29.78204 -2.00925,34.52601 -7.53564,14.18448 z M 238.39407,816.99847 c -12.70638,-24.37597 9.7802,-54.19876 40.86632,-54.19876 32.08999,0 56.83387,35.60263 39.08363,56.23546 -3.20718,3.72796 -4.04273,-1.51208 -2.18062,-13.67435 2.46659,-16.10978 0.72228,-21.40953 -9.53112,-28.95761 -6.90262,-5.08145 -19.21999,-9.23907 -27.37189,-9.23907 -8.1519,0 -20.46927,4.15762 -27.37189,9.23907 -10.15092,7.47272 -11.99027,12.89622 -9.62122,28.369 3.09511,20.21477 2.03506,23.56077 -3.87321,12.22626 z m 379.43417,0 c -12.70633,-24.37597 9.78026,-54.19876 40.86632,-54.19876 32.09011,0 56.83387,35.60263 39.08362,56.23546 -3.20712,3.72796 -4.04272,-1.51208 -2.18049,-13.67435 2.46647,-16.10978 0.72209,-21.40953 -9.53124,-28.95761 -6.90262,-5.08145 -19.21999,-9.23907 -27.37189,-9.23907 -8.15183,0 -20.46927,4.15762 -27.37189,9.23907 -10.15092,7.47272 -11.99027,12.89622 -9.62129,28.369 3.09512,20.21477 2.03519,23.56077 -3.87314,12.22626 z M 48.676994,812.63402 c -12.706332,-24.37601 9.780256,-54.19878 40.866317,-54.19878 32.090049,0 56.833929,35.60265 39.083689,56.23549 -3.20718,3.72796 -4.04286,-1.51211 -2.18062,-13.6744 2.46654,-16.10977 0.72216,-21.40948 -9.53118,-28.95757 -6.90262,-5.08151 -19.219989,-9.23905 -27.371889,-9.23905 -8.1519,0 -20.469209,4.15754 -27.371891,9.23905 -10.15097,7.47274 -11.990338,12.89623 -9.621284,28.36899 3.095114,20.21479 2.035122,23.56081 -3.873142,12.22627 z m 379.434166,0 c -12.70639,-24.37601 9.78025,-54.19878 40.86631,-54.19878 32.09005,0 56.83387,35.60265 39.08363,56.23549 -3.20717,3.72796 -4.04273,-1.51211 -2.18062,-13.6744 2.4666,-16.10977 0.72228,-21.40948 -9.53111,-28.95757 -6.90262,-5.08151 -19.21999,-9.23905 -27.3719,-9.23905 -8.15189,0 -20.46926,4.15754 -27.37188,9.23905 -10.15092,7.47274 -11.99028,12.89623 -9.62123,28.36899 3.09512,20.21479 2.03506,23.56081 -3.8732,12.22627 z M 58.121366,722.64667 C 54.208448,719.7661 51.385588,710.43706 51.84836,701.9155 l 0.841294,-15.49388 3.605222,17.41567 c 3.683484,17.79397 14.476694,23.40681 34.262428,17.81751 7.221481,-2.03995 7.708042,-3.9392 2.249671,-8.78083 -5.362962,-4.75718 -5.081188,-10.27987 1.225307,-24.01414 4.504588,-9.80993 10.006148,-16.49933 12.225688,-14.86536 2.21966,1.63398 4.39899,-3.73951 4.84303,-11.94106 0.57892,-10.68632 1.54844,-12.05626 3.42246,-4.83461 1.43833,5.54256 -0.17752,15.97566 -3.5918,23.18473 -4.40967,9.31221 -4.3106,15.34268 0.34222,20.82717 14.31797,16.8779 -33.27064,36.05215 -53.152332,21.41597 z m 171.220224,-0.88816 c -5.96842,-5.29422 -5.40976,-11.46925 2.88294,-31.86304 5.65743,-13.91289 12.24527,-32.17011 14.63976,-40.57174 3.37445,-11.84024 4.48964,-12.82175 4.95881,-4.36445 0.33247,6.00112 -4.783,23.5669 -11.36877,39.03505 -13.7227,32.23074 -12.06604,39.52523 8.97672,39.52523 13.00518,0 15.00767,-1.90874 15.00767,-14.30451 0,-7.86748 3.68117,-18.17852 8.18034,-22.91336 4.49909,-4.73496 9.74656,-12.53698 11.66084,-17.33789 1.91434,-4.80091 2.15585,-0.1627 0.53683,10.3078 -3.40921,22.04556 4.11429,31.15459 25.73195,31.15459 14.53537,0 14.6791,-0.27262 4.50161,-8.55185 -6.07446,-4.94123 -11.37104,-17.37921 -12.54529,-29.46009 l -2.03225,-20.90827 5.28652,21.14406 c 2.90752,11.62935 9.47335,24.54998 14.59065,28.71268 14.34323,11.66746 11.38988,14.04196 -15.65631,12.58778 -20.92094,-1.12485 -25.58554,-3.10796 -28.82243,-12.25326 -3.32101,-9.38278 -4.18457,-8.46582 -6.16496,6.5467 -1.97834,14.99733 -4.46348,17.64273 -17.63209,18.76959 -8.43098,0.72147 -18.66059,-1.64326 -22.73237,-5.25502 z m 208.214,0.88816 c -3.91292,-2.88057 -6.73578,-12.20961 -6.27307,-20.73117 l 0.84129,-15.49388 3.60516,17.41567 c 3.68355,17.79397 14.47682,23.40681 34.26256,17.81751 7.22136,-2.03995 7.70799,-3.9392 2.24961,-8.78083 -5.36302,-4.75718 -5.08112,-10.27987 1.22536,-24.01414 4.50454,-9.80993 10.00615,-16.49933 12.2257,-14.86536 2.21959,1.63398 4.39893,-3.73951 4.84296,-11.94106 0.57892,-10.68632 1.54845,-12.05626 3.42252,-4.83461 1.43827,5.54256 -0.17813,15.97566 -3.5918,23.18473 -4.40973,9.31221 -4.31072,15.34268 0.34222,20.82717 14.31803,16.8779 -33.27057,36.05215 -53.15226,21.41597 z m 215.54651,-4.46272 c -5.076,-5.33499 -9.12233,-11.718 -8.99179,-14.18447 0.13054,-2.46645 4.21763,0.91658 9.08232,7.51785 11.42771,15.50692 41.51912,17.70719 36.16841,2.6446 -2.37417,-6.68354 -1.49969,-8.0146 3.06003,-4.65782 10.00762,7.36718 0.76938,18.37989 -15.41827,18.37989 -8.44032,0 -18.59136,-4.11968 -23.9007,-9.70005 z m -48.61479,-14.36002 c -1.89282,-3.63127 -0.46546,-9.24215 3.1719,-12.46855 3.6375,-3.22653 5.62979,-11.54855 4.42749,-18.49341 -1.20226,-6.94491 -1.02638,-9.19009 0.39103,-4.98925 2.97706,8.824 19.53805,10.45595 19.53805,1.92523 0,-3.14183 3.98943,-9.52489 8.86527,-14.18445 7.8738,-7.52459 7.87978,-6.6678 0.0488,7.66122 -5.5789,10.21369 -6.6564,17.11413 -2.93656,18.80657 3.23165,1.4703 5.87569,5.6193 5.87569,9.21994 0,3.67547 -2.8788,5.23695 -6.56379,3.56037 -4.417,-2.00959 -5.25585,0.0496 -2.56489,6.28914 3.37738,7.83339 1.60372,9.27545 -11.40818,9.27545 -8.47394,0 -16.95586,-2.971 -18.84879,-6.60226 z m 69.91724,-20.92521 c -0.48863,-4.33804 2.09857,-16.6198 5.7493,-27.29289 4.71719,-13.79093 4.80442,-21.03173 0.30074,-25.02593 -4.72608,-4.19212 -3.02307,-7.09137 6.70187,-11.40943 7.79508,-3.46115 10.38753,-3.7192 6.44687,-0.64172 -4.84878,3.78651 -4.38162,9.86869 1.76682,23.00626 9.2319,19.72604 6.34364,31.81148 -6.72046,28.121 -5.78266,-1.63358 -9.25636,1.34648 -10.91906,9.36717 -1.3411,6.4696 -2.83818,8.21362 -3.32675,3.87554 z m 20.45488,-27.46471 c -2.10997,-4.0478 -5.17031,-6.37763 -6.80068,-5.17742 -1.63037,1.2002 -1.238,5.49412 0.87198,9.54186 2.10997,4.04778 5.17026,6.37762 6.80068,5.17736 1.63036,-1.20022 1.23799,-5.49403 -0.87198,-9.5418 z m -640.835396,7.26485 c -2.328732,-12.46464 -2.626304,-23.84655 -0.661214,-25.29311 1.965032,-1.44664 3.572832,2.73625 3.572832,9.29525 0,6.55906 2.481782,15.33928 5.515036,19.51156 3.033262,4.17229 3.330768,10.18774 0.661156,13.36753 -3.109142,3.7035 -6.375676,-2.36434 -9.08781,-16.88123 z m 379.434106,0 c -2.32873,-12.46464 -2.62624,-23.84655 -0.66116,-25.29311 1.9651,-1.44664 3.57289,2.73625 3.57289,9.29525 0,6.55906 2.48174,15.33928 5.51498,19.51156 3.0332,4.17229 3.33077,10.18774 0.66116,13.36753 -3.10914,3.7035 -6.37568,-2.36434 -9.08787,-16.88123 z M 261.23063,675.2201 c -2.14932,-2.56012 -2.63637,-5.59085 -1.08226,-6.73493 1.554,-1.14402 4.40533,0.95065 6.33621,4.65487 4.00888,7.69061 0.59173,9.0434 -5.25395,2.08006 z m 359.10796,-37.64103 c -0.0995,-2.85891 2.53454,-6.43325 5.85275,-7.9429 3.69543,-1.68136 1.39844,-7.08221 -5.92871,-13.93949 -25.24417,-23.62554 -5.04886,-62.39111 32.50329,-62.39111 22.4002,0 44.61917,18.17203 43.78318,35.80849 -0.67812,14.30594 -0.70569,14.29139 -5.15758,-2.71849 -2.46171,-9.4057 -9.33461,-19.71679 -15.27301,-22.9134 -26.18863,-14.09726 -61.88884,0.33912 -61.88884,25.02602 0,15.87177 10.14328,31.5593 18.07302,27.95151 3.09138,-1.40654 11.55489,0.50236 18.80766,4.24219 l 13.18692,6.79953 -15.84622,0 c -8.83715,0 -18.51913,3.37837 -21.88925,7.63784 -3.32362,4.20075 -6.12409,5.29873 -6.22321,2.43981 z m -323.53603,-6.00354 c -2.14927,-2.56019 -2.97373,-5.07996 -1.83199,-5.59949 1.14168,-0.51941 7.41156,-3.79199 13.9331,-7.27222 11.51787,-6.14644 11.55989,-6.06965 1.46926,2.68027 -5.71349,4.95439 -8.60368,10.32154 -6.42276,11.92704 2.18097,1.60558 2.34429,2.91921 0.36296,2.91921 -1.98144,0 -5.36113,-2.09462 -7.51051,-4.65481 z M 59.459344,626.51942 c 0.898878,-3.06057 -3.303068,-10.24859 -9.337616,-15.97336 -24.261648,-23.01585 -3.281778,-61.60492 33.492879,-61.60492 22.400263,0 44.619223,18.17197 43.783183,35.80849 -0.67811,14.30587 -0.70569,14.29137 -5.15757,-2.71854 -2.46166,-9.40571 -9.33457,-19.71675 -15.27297,-22.91336 -26.188615,-14.09724 -61.888886,0.33914 -61.888886,25.02601 0,15.87178 10.143344,31.5593 18.073066,27.95151 3.091458,-1.40654 11.554903,0.50237 18.807675,4.24219 l 13.186849,6.79953 -15.646736,0 c -8.605706,0 -17.002956,2.01312 -18.660532,4.4736 -1.657518,2.46043 -2.27822,1.96943 -1.379342,-1.09115 z m 47.626196,0.69168 c -2.14939,-2.56019 -2.97384,-5.07996 -1.83211,-5.59956 1.14173,-0.51941 7.41163,-3.79191 13.93316,-7.27215 11.51787,-6.14643 11.55996,-6.06971 1.4692,2.68028 -5.71337,4.95432 -8.60363,10.32151 -6.42265,11.92703 2.18092,1.60556 2.34423,2.91921 0.36297,2.91921 -1.98138,0 -5.36107,-2.09469 -7.51045,-4.65481 z m 134.55232,-10.53364 c -17.26894,-18.55298 -16.57241,-39.14789 1.7811,-52.65907 8.00366,-5.89199 21.46441,-10.71282 29.91279,-10.71282 22.4002,0 44.61917,18.17203 43.78311,35.80849 -0.67817,14.30594 -0.70574,14.29139 -5.15756,-2.71849 -2.46172,-9.4057 -9.3345,-19.71679 -15.27296,-22.9134 -26.18863,-14.09726 -61.88889,0.33912 -61.88889,25.02602 0,15.87177 10.14328,31.5593 18.07301,27.95151 3.09145,-1.40654 11.07876,0.25724 17.74969,3.69661 12.02809,6.20212 12.01126,6.27061 -2.04019,8.24801 -10.8539,1.52745 -17.15704,-1.21631 -26.9401,-11.72686 z m 197.25565,9.84196 c 0.89888,-3.06057 -3.303,-10.24859 -9.33768,-15.97336 -24.26159,-23.01585 -3.28177,-61.60492 33.493,-61.60492 22.40015,0 44.61917,18.17197 43.78318,35.80849 -0.67817,14.30587 -0.70575,14.29137 -5.15763,-2.71854 -2.46165,-9.40571 -9.33449,-19.71675 -15.27296,-22.91336 -26.18862,-14.09724 -61.88889,0.33914 -61.88889,25.02601 0,15.87178 10.14328,31.5593 18.07301,27.95151 3.09145,-1.40654 11.55496,0.50237 18.80767,4.24219 l 13.18692,6.79953 -15.64675,0 c -8.6057,0 -17.0029,2.01312 -18.66046,4.4736 -1.65759,2.46043 -2.27836,1.96943 -1.37941,-1.09115 z m 47.62619,0.69168 c -2.14932,-2.56019 -2.97378,-5.07996 -1.83204,-5.59956 1.14173,-0.51941 7.41162,-3.79191 13.9331,-7.27215 11.51786,-6.14643 11.55995,-6.06971 1.46925,2.68028 -5.71343,4.95432 -8.60368,10.32151 -6.42276,11.92703 2.18104,1.60556 2.34429,2.91921 0.36297,2.91921 -1.98145,0 -5.36108,-2.09469 -7.51046,-4.65481 z M 66.346038,508.92316 c -8.62034,-7.4116 -9.588944,-11.14269 -4.461818,-17.18651 4.6527,-5.4845 4.751706,-11.51503 0.342228,-20.8272 -3.413794,-7.20905 -5.03013,-17.64222 -3.591806,-23.1847 1.874074,-7.22178 2.843902,-5.85172 3.42252,4.8346 0.444104,8.20151 2.623376,13.57497 4.84297,11.94098 2.219536,-1.6339 7.721099,5.05546 12.225686,14.86539 6.306497,13.73427 6.588331,19.25701 1.225307,24.01408 -5.458371,4.84169 -4.97181,6.74093 2.249672,8.78086 19.785673,5.58938 30.578943,-0.0219 34.262493,-17.81754 l 3.60522,-17.41556 0.84123,15.49384 c 0.46301,8.5216 -2.36009,17.85064 -6.27301,20.73116 -11.28251,8.30576 -36.676439,6.09993 -48.690444,-4.2294 z m 219.831122,6.55713 c -2.17384,-1.60028 -4.21836,-9.94732 -4.54345,-18.54898 -0.51669,-13.67824 -1.10397,-14.27114 -4.68272,-4.72813 -3.41696,9.11165 -8.2082,11.13247 -29.05228,12.25319 -27.04618,1.4542 -29.99953,-0.92026 -15.65637,-12.58775 5.1173,-4.16268 11.68318,-17.08335 14.59071,-28.71265 l 5.28653,-21.14411 -2.03226,20.90833 c -1.17425,12.08086 -6.47083,24.5188 -12.54528,29.46009 -10.1775,8.27885 -10.03383,8.55178 4.5016,8.55178 21.61765,0 29.1411,-9.1089 25.73183,-31.15453 -1.61909,-10.47021 -1.37758,-15.10871 0.53683,-10.3078 1.91434,4.80087 7.16176,12.60294 11.6609,17.3378 4.49917,4.73494 8.18028,15.04598 8.18028,22.91346 0,12.39576 2.00255,14.30446 15.00773,14.30446 21.0427,0 22.69937,-7.29448 8.97672,-39.52518 -6.58577,-15.46816 -11.7018,-33.03398 -11.36884,-39.03509 0.46912,-8.45725 1.58444,-7.47571 4.95888,4.36443 2.39443,8.40163 8.98234,26.65891 14.63977,40.57181 8.11036,19.94533 8.77272,26.63855 3.13165,31.64234 -7.34484,6.51502 -30.27253,8.62616 -37.3221,3.43653 z m 159.60311,-6.55713 c -8.62041,-7.4116 -9.58908,-11.14269 -4.46182,-17.18651 4.65269,-5.4845 4.75171,-11.51503 0.34222,-20.8272 -3.41373,-7.20905 -5.03006,-17.64222 -3.5918,-23.1847 1.87413,-7.22178 2.84397,-5.85172 3.42252,4.8346 0.4441,8.20151 2.62343,13.57497 4.84296,11.94098 2.21961,-1.6339 7.72117,5.05546 12.2257,14.86539 6.30649,13.73427 6.58838,19.25701 1.22531,24.01408 -5.45832,4.84169 -4.9717,6.74093 2.24966,8.78086 19.78574,5.58938 30.57902,-0.0219 34.26256,-17.81754 l 3.60516,-17.41556 0.8413,15.49384 c 0.463,8.5216 -2.36016,17.85064 -6.27308,20.73116 -11.28246,8.30576 -36.67644,6.09993 -48.69044,-4.2294 z m 170.44042,2.6267 c -1.96107,-3.76198 -0.69263,-8.95495 2.81871,-11.53981 4.55979,-3.35679 5.43428,-2.02572 3.06009,4.65778 -5.3507,15.06264 24.74071,12.86231 36.16841,-2.64461 4.86469,-6.60126 8.95178,-9.98432 9.08226,-7.51778 0.94744,17.89769 -43.0409,32.56161 -51.12947,17.04442 z m 60.49557,-19.89325 c 2.69104,-6.24179 1.85212,-8.29877 -2.56492,-6.28911 -3.68501,1.67657 -6.56375,0.11497 -6.56375,-3.56032 0,-3.60071 2.64405,-7.74969 5.87569,-9.21999 3.71978,-1.69241 2.64229,-8.59284 -2.93657,-18.80655 -7.82675,-14.32901 -7.82089,-15.18579 0.0488,-7.66125 4.87592,4.65956 8.86528,11.04262 8.86528,14.18449 0,8.53068 16.56104,6.89878 19.53799,-1.92524 1.41729,-4.20086 1.59322,-1.95567 0.39103,4.98922 -1.2023,6.94491 0.79006,15.26693 4.42742,18.49335 10.01652,8.88514 1.64355,19.07085 -15.67705,19.07085 -13.01189,0 -14.78555,-1.44203 -11.40825,-9.27545 z m -44.23251,-22.22987 c -0.34163,-8.64996 -2.86453,-11.18837 -9.31115,-9.36723 -13.40164,3.78582 -16.4058,-8.09813 -7.08288,-28.01857 6.14838,-13.13756 6.61553,-19.21979 1.76682,-23.00629 -3.94067,-3.07745 -1.34828,-2.81939 6.44681,0.64175 9.62402,4.27315 11.40184,7.24046 6.78934,11.33185 -4.39728,3.90052 -4.14492,11.99894 0.85202,27.33275 3.90549,11.98452 5.72966,24.30122 4.0539,27.37052 -1.67574,3.06927 -3.2575,0.24131 -3.51486,-6.28478 z m -6.48756,-26.58129 c 0.0488,-1.94206 -2.57714,-2.31713 -5.83788,-0.83359 -3.26079,1.48354 -5.88782,6.0185 -5.83793,10.0776 0.0787,6.36024 0.8851,6.47541 5.83793,0.83359 3.16094,-3.60072 5.78792,-8.1356 5.83788,-10.0776 z m -515.70317,27.53541 c -0.77194,-3.60071 -0.70618,-8.51066 0.1464,-10.91113 0.85228,-2.40044 3.52927,-11.23849 5.9489,-19.64012 4.22519,-14.67096 4.3985,-14.75737 4.37959,-2.18219 -0.0244,15.65769 -8.47399,42.06552 -10.47471,32.73344 z m 379.43416,0 c -0.77199,-3.60071 -0.70623,-8.51066 0.1458,-10.91113 0.85233,-2.40044 3.52938,-11.23849 5.94896,-19.64012 4.22513,-14.67096 4.3985,-14.75737 4.37964,-2.18219 -0.0244,15.65769 -8.47405,42.06552 -10.4747,32.73344 z m -204.157,-5.64383 c 2.22649,-4.30432 5.54151,-6.72655 7.36685,-5.38283 1.82539,1.34381 0.003,4.86549 -4.04798,7.82604 -5.85526,4.27838 -6.53623,3.77703 -3.31887,-2.44321 z m 397.75754,-39.99479 c -1.98815,-3.81419 -10.59111,-6.73488 -19.83758,-6.73488 l -16.32687,0 13.18692,-6.79952 c 7.25276,-3.73979 15.71621,-5.6488 18.80767,-4.24221 7.92972,3.60781 18.07301,-12.07967 18.07301,-27.9515 0,-24.68709 -35.70028,-39.12326 -61.88889,-25.02602 -5.9384,3.19661 -12.81126,13.50765 -15.27297,22.91336 -4.45189,17.00991 -4.47946,17.02449 -5.15757,2.71847 -0.46972,-9.91116 3.84259,-17.71356 13.87039,-25.09565 41.9049,-30.8489 99.93241,16.56744 62.80162,51.31743 -8.64072,8.08667 -9.86853,12.09095 -4.84176,15.79146 3.70387,2.72667 5.2409,6.05701 3.4155,7.40083 -1.8254,1.34373 -4.8986,-0.58755 -6.82947,-4.29177 z m -435.17987,-0.22535 c 2.45269,-1.99038 -0.21473,-7.49351 -5.92864,-12.22912 -10.11358,-8.38271 -10.03561,-8.45089 2.95139,-2.57773 15.1168,6.83638 16.63487,10.75054 5.9287,15.2862 -4.07604,1.72675 -5.40413,1.51102 -2.95145,-0.47931 z m -189.717018,-4.3645 c 2.452626,-1.99037 -0.21534,-7.49351 -5.928702,-12.22906 -10.113576,-8.38277 -10.035554,-8.45087 2.951386,-2.57772 15.116808,6.8363 16.634924,10.75052 5.928644,15.28617 -4.075918,1.72677 -5.404078,1.51103 -2.951328,-0.47928 z m 51.862728,-2.14503 c 0,-2.4004 -7.26327,-4.36446 -16.140736,-4.36446 l -16.1408,0 13.186849,-6.79951 c 7.252775,-3.73971 15.716217,-5.64874 18.807677,-4.24221 7.92972,3.6078 18.07301,-12.07967 18.07301,-27.95148 0,-24.68713 -35.700216,-39.12326 -61.88883,-25.02603 -5.93847,3.19667 -12.811318,13.50766 -15.272976,22.91343 -4.451876,17.00984 -4.479452,17.0244 -5.157564,2.71841 -0.836042,-17.63648 21.382916,-35.80842 43.783121,-35.80842 36.774719,0 57.754589,38.58911 33.492939,61.60494 -6.03455,5.7248 -9.81411,12.86366 -8.3989,15.8643 1.41515,3.00055 1.01674,5.45552 -0.88534,5.45552 -1.90208,0 -3.45845,-1.96397 -3.45845,-4.36449 z m 172.79795,0.77032 -13.95482,-1.49613 12.48305,-6.43666 c 6.86572,-3.54007 15.01249,-5.2858 18.10389,-3.87926 7.92978,3.60784 18.07307,-12.07967 18.07307,-27.9515 0,-24.68709 -35.70028,-39.12321 -61.88889,-25.02602 -5.93847,3.19668 -12.81131,13.5077 -15.27303,22.91341 -4.45183,17.00992 -4.47939,17.02448 -5.15756,2.71842 -0.83599,-17.63639 21.38296,-35.80837 43.78317,-35.80837 22.09568,0 44.46496,18.13669 44.46496,36.05159 0,19.7949 -22.0453,40.90737 -40.63384,38.91452 z m 154.77343,1.37471 c 2.45268,-1.99037 -0.21474,-7.49351 -5.92865,-12.22912 -10.11357,-8.38271 -10.03561,-8.45081 2.95139,-2.57766 15.11681,6.8363 16.63487,10.75052 5.92864,15.28617 -4.07591,1.72677 -5.40401,1.51103 -2.95138,-0.47928 z m 51.86285,-2.14503 c 0,-2.4004 -7.26339,-4.36446 -16.1408,-4.36446 l -16.1408,0 13.18685,-6.79951 c 7.25277,-3.73971 15.71627,-5.64874 18.80774,-4.24221 7.92972,3.6078 18.073,-12.07967 18.073,-27.95148 0,-24.68713 -35.70028,-39.12326 -61.88889,-25.02603 -5.93846,3.19667 -12.81125,13.50766 -15.27296,22.91343 -4.45189,17.00984 -4.47946,17.0244 -5.15763,2.71841 -0.83599,-17.63648 21.38297,-35.80842 43.78317,-35.80842 36.77479,0 57.75459,38.58911 33.49301,61.60494 -6.03467,5.7248 -9.81418,12.86366 -8.39897,15.8643 1.41515,3.00055 1.0168,5.45552 -0.88534,5.45552 -1.90213,0 -3.45838,-1.96397 -3.45838,-4.36449 z M 54.764246,305.47573 c -1.579248,-1.8811 4.266064,-3.35403 12.989504,-3.27341 14.502319,0.13399 16.018915,-1.46968 17.705345,-18.72474 1.01442,-10.37931 -0.759609,-21.18137 -3.942323,-24.0045 -4.153881,-3.68461 -1.888959,-5.13307 8.026539,-5.13307 9.915559,0 12.180419,1.44846 8.02654,5.13307 -3.182714,2.82313 -4.956805,13.62519 -3.942324,24.0045 1.686429,17.25506 3.203026,18.85891 17.705343,18.72474 8.72344,-0.0806 14.56875,1.39231 12.98957,3.27341 -4.18847,4.98899 -22.48213,4.18019 -29.959886,-1.32469 -4.641235,-3.41671 -7.560232,-3.41671 -10.428658,0 -4.592187,5.46999 -24.914752,6.39284 -29.16965,1.32469 z m 195.515844,-0.15441 c -1.65062,-1.96609 4.8617,-2.72519 14.47175,-1.68686 l 17.47288,1.88785 1.03577,-25.59098 c 0.90851,-22.44717 1.31814,-23.2585 3.3343,-6.60425 1.96931,16.2679 3.94458,18.6699 13.79401,16.77373 6.32261,-1.21719 10.00047,-0.43201 8.1732,1.74447 -1.82735,2.17657 -6.8814,3.95743 -11.23129,3.95743 -4.34982,0 -9.44443,2.94597 -11.32124,6.54667 -3.58266,6.87291 -30.56986,9.11772 -35.72938,2.97194 z m 183.91826,0.15441 c -1.57919,-1.8811 4.26612,-3.35403 12.98962,-3.27341 14.50226,0.13399 16.01881,-1.46968 17.70529,-18.72474 1.01448,-10.37931 -0.75954,-21.18137 -3.94233,-24.0045 -4.15387,-3.68461 -1.88895,-5.13307 8.02654,-5.13307 9.91551,0 12.18043,1.44846 8.02655,5.13307 -3.18272,2.82313 -4.95681,13.62519 -3.94232,24.0045 1.68649,17.25506 3.20302,18.85891 17.70528,18.72474 8.72356,-0.0806 14.56887,1.39231 12.98962,3.27341 -4.18847,4.98899 -22.48207,4.18019 -29.95994,-1.32469 -4.64117,-3.41671 -7.56012,-3.41671 -10.42854,0 -4.59224,5.46999 -24.91487,6.39284 -29.16977,1.32469 z m 217.74727,-3.12665 c -1.87696,-3.60065 -6.97156,-6.54668 -11.32139,-6.54668 -4.34988,0 -9.40392,-1.78085 -11.23121,-3.95744 -1.82735,-2.17659 1.8506,-2.96159 8.17313,-1.74445 9.84943,1.89616 11.82472,-0.50567 13.79401,-16.77368 2.01615,-16.6543 2.42579,-15.84297 3.33431,6.60419 l 1.03577,25.59105 17.47293,-1.88792 c 9.61006,-1.03834 16.12231,-0.27922 14.47174,1.6869 -5.15963,6.14574 -32.14678,3.90099 -35.72929,-2.97197 z M 51.836284,265.80787 c -0.731428,-24.5316 -1.907878,-27.15325 -9.97352,-22.22548 -6.424658,3.92522 -11.00788,4.21483 -15.410592,0.97375 -7.803934,-5.74498 -2.843472,-17.73543 15.625998,-37.77097 7.91313,-8.58422 11.760474,-16.62375 8.635716,-18.04539 -3.099506,-1.41028 -5.635522,-10.39342 -5.635522,-19.96266 0,-33.54241 44.271079,-50.27481 74.377736,-28.11145 10.58324,7.79098 14.55216,15.45806 14.55216,28.11145 0,9.56924 -2.0009,18.30905 -4.44651,19.42185 -2.44555,1.11282 -3.53068,-6.44418 -2.41133,-16.79319 1.57803,-14.58966 -0.75254,-20.86857 -10.37516,-27.95236 -26.973966,-19.85724 -65.768252,-5.16567 -65.768252,24.90673 0,9.12178 3.334912,19.06406 7.41083,22.09411 5.933772,4.41111 5.547624,6.28381 -1.937696,9.39573 -11.692584,4.86115 -32.580578,38.17156 -26.666392,42.52538 4.171938,3.0712 18.104794,-7.83944 23.132178,-18.11436 6.346876,-12.97202 8.329658,3.07718 4.255146,34.44349 l -4.53558,34.91564 -0.82921,-27.81227 z m 69.527136,-7.10337 c -3.41007,-31.73425 -1.30894,-46.88279 4.77734,-34.44349 5.02726,10.27492 18.96018,21.18556 23.13211,18.11436 5.79109,-4.2632 -14.75176,-37.42784 -26.66639,-43.05052 -7.67321,-3.62105 -7.75489,-4.12413 -0.45508,-2.80719 4.8911,0.88244 15.53181,10.74102 23.64601,21.9079 11.44753,15.75431 13.16428,21.47302 7.6621,25.5235 -5.50217,4.05048 -9.07365,4.00882 -15.93979,-0.18634 -7.66302,-4.68174 -9.08714,-1.70311 -10.62643,22.22549 l -1.77757,27.63182 -3.75187,-34.91569 z m 309.90702,7.10337 c -0.73142,-24.5316 -1.90792,-27.15325 -9.9735,-22.22548 -6.42467,3.92522 -11.00794,4.21483 -15.4106,0.97375 -7.80394,-5.74498 -2.84348,-17.73543 15.62594,-37.77097 7.91318,-8.58422 11.76059,-16.62375 8.63577,-18.04539 -3.09956,-1.41028 -5.63552,-10.39342 -5.63552,-19.96266 0,-33.54241 44.27108,-50.27481 74.37775,-28.11145 10.58323,7.79098 14.55215,15.45806 14.55215,28.11145 0,9.56924 -2.00096,18.30905 -4.44652,19.42185 -2.44555,1.11282 -3.53061,-6.44418 -2.41133,-16.79319 1.57803,-14.58966 -0.75253,-20.86857 -10.37509,-27.95236 -26.97397,-19.85724 -65.76832,-5.16567 -65.76832,24.90673 0,9.12178 3.33485,19.06406 7.41083,22.09411 5.93377,4.41111 5.54756,6.28381 -1.93763,9.39573 -11.69258,4.86115 -32.58064,38.17156 -26.66639,42.52538 4.17188,3.0712 18.10473,-7.83944 23.13205,-18.11436 6.34701,-12.97202 8.32973,3.07718 4.25527,34.44349 l -4.53558,34.91564 -0.82928,-27.81227 z m 69.52709,-7.10337 c -3.41002,-31.73425 -1.30895,-46.88279 4.77739,-34.44349 5.02733,10.27492 18.96018,21.18556 23.13206,18.11436 5.79114,-4.2632 -14.75171,-37.42784 -26.66634,-43.05052 -7.6732,-3.62105 -7.75482,-4.12413 -0.45508,-2.80719 4.89118,0.88244 15.53187,10.74102 23.64601,21.9079 11.44753,15.75431 13.16427,21.47302 7.66212,25.5235 -5.50218,4.05048 -9.0736,4.00882 -15.93987,-0.18634 -7.66289,-4.68174 -9.08708,-1.70311 -10.62642,22.22549 l -1.77752,27.63182 -3.75193,-34.91569 z m -257.07984,6.64476 c -2.13249,-7.14741 -1.95967,-17.4431 0.3837,-22.87923 3.74712,-8.69124 3.11641,-9.18432 -5.22715,-4.08676 -10.38541,6.34509 -21.86522,3.45005 -21.86522,-5.51409 0,-3.12405 6.53783,-12.77228 14.52849,-21.44053 8.04276,-8.72475 12.01273,-16.90504 8.89296,-18.32444 -3.09949,-1.41021 -5.63545,-10.39342 -5.63545,-19.96266 0,-12.65332 3.96892,-20.32046 14.55215,-28.11138 30.10666,-22.16343 74.37774,-5.43096 74.37774,28.11138 0,9.56924 -2.00096,18.30911 -4.44644,19.42187 -2.44562,1.1128 -3.53074,-6.44418 -2.4114,-16.79319 1.57797,-14.58967 -0.75253,-20.86858 -10.37515,-27.95237 -26.97398,-19.85724 -65.76826,-5.16567 -65.76826,24.90674 0,9.12176 3.33486,19.0641 7.41083,22.09416 5.93426,4.41144 5.49852,6.30393 -2.18683,9.49834 -11.52885,4.7919 -26.34527,29.38237 -20.35892,33.78925 2.33593,1.71968 7.6579,-0.30725 11.82678,-4.50438 4.16877,-4.19703 8.86283,-7.63091 10.43116,-7.63091 1.56833,0 2.63399,11.78402 2.3682,26.18676 -0.26536,14.40268 -0.96416,26.18676 -1.55185,26.18676 -0.58746,0 -2.81334,-5.84788 -4.94577,-12.99532 z m 63.74064,-11.00925 c -0.22816,-23.20555 0.47582,-24.82039 6.18485,-14.18447 3.54336,6.6012 8.59533,12.00228 11.22664,12.00228 8.54324,0 5.06142,-19.57631 -6.43406,-36.17511 -6.16997,-8.90917 -9.12758,-16.19841 -6.57235,-16.19841 6.16595,0 23.71923,32.66656 23.71923,44.14151 0,5.29082 -4.78528,9.97042 -11.52179,11.2673 -6.79982,1.30897 -12.51013,6.95474 -13.93328,13.77583 -1.32639,6.35682 -2.52754,-0.22646 -2.66924,-14.62893 z m 318.62862,13.6024 c 0,-6.73153 -4.18401,-11.20755 -11.85728,-12.68478 -15.14553,-2.91562 -15.21983,-16.86469 -0.2196,-41.19042 6.55325,-10.62717 9.01185,-19.52677 5.79845,-20.98877 -3.06857,-1.39599 -5.57909,-10.36765 -5.57909,-19.93689 0,-12.65332 3.96898,-20.32046 14.55222,-28.11138 30.10666,-22.16343 74.37768,-5.43096 74.37768,28.11138 0,9.56924 -2.00091,18.30911 -4.44652,19.42187 -2.44548,1.1128 -3.53061,-6.44418 -2.41126,-16.79319 1.57796,-14.58967 -0.7526,-20.86858 -10.37516,-27.95237 -26.97397,-19.85724 -65.76825,-5.16567 -65.76825,24.90674 0,9.12176 2.65753,18.54138 5.90576,20.93254 3.92189,2.88718 1.93032,10.08789 -5.9287,21.43583 -12.01382,17.34723 -15.76436,37.06485 -7.05026,37.06485 2.63139,0 7.68329,-5.40108 11.22664,-12.00228 5.83659,-10.87359 6.50178,-9.64234 7.07319,13.09339 0.3471,13.80262 -0.70331,25.09565 -2.33367,25.09565 -1.63037,0 -2.96432,-4.68093 -2.96432,-10.40217 z m 61.65013,-15.92546 c -0.26414,-14.3253 0.80244,-26.04589 2.37082,-26.04589 1.56833,0 6.26228,3.43388 10.43116,7.63091 4.16883,4.19701 9.49079,6.22406 11.82673,4.50438 5.87324,-4.32361 -8.65389,-28.80888 -20.35892,-34.31437 -7.52338,-3.53873 -7.67572,-4.16016 -0.70464,-2.87532 4.89116,0.90148 14.19601,8.79738 20.67753,17.54655 9.14015,12.338 10.19429,17.07812 4.69766,21.12448 -5.4965,4.04642 -9.13777,3.96393 -16.22737,-0.36769 -7.96223,-4.86468 -8.70703,-3.96877 -5.77699,6.94983 1.84998,6.89396 1.15438,16.89011 -1.54587,22.21362 -3.56849,7.03543 -5.04074,2.56505 -5.39011,-16.36673 z"
       id="path4173"
       inkscape:connector-curvature="0" />
  </g>
</svg>
